<svg width="760" height="504" viewBox="0 0 760 504" fill="none" xmlns="http://www.w3.org/2000/svg" role="img" aria-labelledby="title desc">
  <title id="title">bitpixi focus stickers</title>
  <desc id="desc">A vertically stacked set of soft focus stickers for AI, worlds, community, and new econ.</desc>
  <defs>
    <linearGradient id="bg1" x1="0" y1="0" x2="700" y2="96" gradientUnits="userSpaceOnUse">
      <stop stop-color="#FFF8FA"/>
      <stop offset="1" stop-color="#F2D9E3"/>
    </linearGradient>
    <linearGradient id="bg2" x1="0" y1="0" x2="700" y2="96" gradientUnits="userSpaceOnUse">
      <stop stop-color="#FFF7FB"/>
      <stop offset="1" stop-color="#EFD9EE"/>
    </linearGradient>
    <linearGradient id="bg3" x1="0" y1="0" x2="700" y2="96" gradientUnits="userSpaceOnUse">
      <stop stop-color="#FFF9F7"/>
      <stop offset="1" stop-color="#F5E0D7"/>
    </linearGradient>
    <filter id="shadow" x="-20" y="-20" width="760" height="148" filterUnits="userSpaceOnUse" color-interpolation-filters="sRGB">
      <feDropShadow dx="0" dy="8" stdDeviation="10" flood-color="#B77791" flood-opacity="0.16"/>
    </filter>
  </defs>

  <g transform="translate(20 20)" filter="url(#shadow)">
    <rect width="700" height="88" rx="28" fill="url(#bg1)" stroke="#E1BAC7" stroke-width="2"/>
    <circle cx="60" cy="44" r="24" fill="#F7E5EB"/>
    <circle cx="52" cy="40" r="3.2" fill="#6D4454"/>
    <circle cx="68" cy="40" r="3.2" fill="#6D4454"/>
    <path d="M52 55C55.5 59 64.5 59 68 55" stroke="#6D4454" stroke-width="3" stroke-linecap="round"/>
    <path d="M44 28L51 20L56 31" fill="#F6D1DC"/>
    <path d="M76 28L69 20L64 31" fill="#F6D1DC"/>
    <text x="104" y="40" fill="#5C3140" font-family="'Trebuchet MS', Arial, sans-serif" font-size="24" font-weight="700">AI</text>
    <text x="104" y="65" fill="#7A4A5D" font-family="'Trebuchet MS', Arial, sans-serif" font-size="16">agentic systems and playful automation</text>
  </g>

  <g transform="translate(20 140)" filter="url(#shadow)">
    <rect width="700" height="88" rx="28" fill="url(#bg2)" stroke="#E1B8C8" stroke-width="2"/>
    <circle cx="60" cy="44" r="23" fill="#F6E7F4"/>
    <circle cx="60" cy="44" r="9" fill="none" stroke="#7A4A5D" stroke-width="3"/>
    <path d="M60 20V14" stroke="#7A4A5D" stroke-width="3" stroke-linecap="round"/>
    <path d="M60 74V68" stroke="#7A4A5D" stroke-width="3" stroke-linecap="round"/>
    <path d="M36 44H30" stroke="#7A4A5D" stroke-width="3" stroke-linecap="round"/>
    <path d="M90 44H84" stroke="#7A4A5D" stroke-width="3" stroke-linecap="round"/>
    <text x="104" y="40" fill="#5C3140" font-family="'Trebuchet MS', Arial, sans-serif" font-size="24" font-weight="700">worlds</text>
    <text x="104" y="65" fill="#7A4A5D" font-family="'Trebuchet MS', Arial, sans-serif" font-size="16">virtual spaces, story systems, and interfaces</text>
  </g>

  <g transform="translate(20 260)" filter="url(#shadow)">
    <rect width="700" height="88" rx="28" fill="url(#bg3)" stroke="#E3B9C5" stroke-width="2"/>
    <path d="M62 24C74 12 94 21 94 37C94 57 69 70 62 76C55 70 30 57 30 37C30 21 50 12 62 24Z" fill="#F6D4DE"/>
    <circle cx="55" cy="37" r="3" fill="#6D4454"/>
    <circle cx="69" cy="37" r="3" fill="#6D4454"/>
    <path d="M54 50C57.5 54 66.5 54 70 50" stroke="#6D4454" stroke-width="3" stroke-linecap="round"/>
    <text x="104" y="40" fill="#5C3140" font-family="'Trebuchet MS', Arial, sans-serif" font-size="24" font-weight="700">community</text>
    <text x="104" y="65" fill="#7A4A5D" font-family="'Trebuchet MS', Arial, sans-serif" font-size="16">events, participation, and shared momentum</text>
  </g>

  <g transform="translate(20 380)" filter="url(#shadow)">
    <rect width="700" height="88" rx="28" fill="url(#bg1)" stroke="#E1BAC7" stroke-width="2"/>
    <circle cx="60" cy="44" r="24" fill="#F6E8EE"/>
    <circle cx="60" cy="44" r="12" fill="#F0C8D6" stroke="#7A4A5D" stroke-width="2"/>
    <path d="M60 30V58" stroke="#7A4A5D" stroke-width="2.5" stroke-linecap="round"/>
    <path d="M50 36C53 32 67 32 70 36" stroke="#7A4A5D" stroke-width="2.5" stroke-linecap="round"/>
    <path d="M50 52C53 56 67 56 70 52" stroke="#7A4A5D" stroke-width="2.5" stroke-linecap="round"/>
    <text x="104" y="40" fill="#5C3140" font-family="'Trebuchet MS', Arial, sans-serif" font-size="24" font-weight="700">new econ</text>
    <text x="104" y="65" fill="#7A4A5D" font-family="'Trebuchet MS', Arial, sans-serif" font-size="16">inventing new ways to pay</text>
  </g>
</svg>
