<svg width="920" height="260" viewBox="0 0 920 260" fill="none" xmlns="http://www.w3.org/2000/svg" role="img" aria-labelledby="title desc">
  <title id="title">bitpixi focus stickers</title>
  <desc id="desc">A two by two set of soft rose focus stickers for AI, worlds, community, and new econ.</desc>
  <defs>
    <linearGradient id="bg1" x1="0" y1="0" x2="420" y2="104" gradientUnits="userSpaceOnUse">
      <stop stop-color="#FFF8FA"/>
      <stop offset="1" stop-color="#F2D9E3"/>
    </linearGradient>
    <linearGradient id="bg2" x1="0" y1="0" x2="420" y2="104" gradientUnits="userSpaceOnUse">
      <stop stop-color="#FFF7FB"/>
      <stop offset="1" stop-color="#EFD9EE"/>
    </linearGradient>
    <linearGradient id="bg3" x1="0" y1="0" x2="420" y2="104" gradientUnits="userSpaceOnUse">
      <stop stop-color="#FFF9F7"/>
      <stop offset="1" stop-color="#F5E0D7"/>
    </linearGradient>
    <filter id="shadow" x="-24" y="-24" width="476" height="160" filterUnits="userSpaceOnUse" color-interpolation-filters="sRGB">
      <feDropShadow dx="0" dy="8" stdDeviation="10" flood-color="#B77791" flood-opacity="0.16"/>
    </filter>
  </defs>

  <g transform="translate(20 20)" filter="url(#shadow)">
    <rect width="410" height="94" rx="30" fill="url(#bg1)" stroke="#E1BAC7" stroke-width="2"/>
    <circle cx="62" cy="47" r="24" fill="#F7E5EB"/>
    <circle cx="54" cy="43" r="3.2" fill="#6D4454"/>
    <circle cx="70" cy="43" r="3.2" fill="#6D4454"/>
    <path d="M54 58C57.5 62 66.5 62 70 58" stroke="#6D4454" stroke-width="3" stroke-linecap="round"/>
    <path d="M46 31L53 23L58 34" fill="#F6D1DC"/>
    <path d="M78 31L71 23L66 34" fill="#F6D1DC"/>
    <text x="108" y="44" fill="#5C3140" font-family="'Trebuchet MS', Arial, sans-serif" font-size="22" font-weight="700">AI</text>
    <text x="108" y="69" fill="#7A4A5D" font-family="'Trebuchet MS', Arial, sans-serif" font-size="15">agentic systems and playful automation</text>
  </g>

  <g transform="translate(490 20)" filter="url(#shadow)">
    <rect width="410" height="94" rx="30" fill="url(#bg2)" stroke="#E1B8C8" stroke-width="2"/>
    <circle cx="60" cy="47" r="23" fill="#F6E7F4"/>
    <circle cx="60" cy="47" r="9" fill="none" stroke="#7A4A5D" stroke-width="3"/>
    <path d="M60 23V17" stroke="#7A4A5D" stroke-width="3" stroke-linecap="round"/>
    <path d="M60 77V71" stroke="#7A4A5D" stroke-width="3" stroke-linecap="round"/>
    <path d="M36 47H30" stroke="#7A4A5D" stroke-width="3" stroke-linecap="round"/>
    <path d="M90 47H84" stroke="#7A4A5D" stroke-width="3" stroke-linecap="round"/>
    <text x="106" y="44" fill="#5C3140" font-family="'Trebuchet MS', Arial, sans-serif" font-size="22" font-weight="700">worlds</text>
    <text x="106" y="69" fill="#7A4A5D" font-family="'Trebuchet MS', Arial, sans-serif" font-size="15">virtual spaces, story systems, and interfaces</text>
  </g>

  <g transform="translate(20 146)" filter="url(#shadow)">
    <rect width="410" height="94" rx="30" fill="url(#bg3)" stroke="#E3B9C5" stroke-width="2"/>
    <path d="M63 28C75 16 95 25 95 41C95 61 70 74 63 80C56 74 31 61 31 41C31 25 51 16 63 28Z" fill="#F6D4DE"/>
    <circle cx="56" cy="41" r="3" fill="#6D4454"/>
    <circle cx="70" cy="41" r="3" fill="#6D4454"/>
    <path d="M55 54C58.5 58 67.5 58 71 54" stroke="#6D4454" stroke-width="3" stroke-linecap="round"/>
    <text x="108" y="44" fill="#5C3140" font-family="'Trebuchet MS', Arial, sans-serif" font-size="22" font-weight="700">community</text>
    <text x="108" y="69" fill="#7A4A5D" font-family="'Trebuchet MS', Arial, sans-serif" font-size="15">events, participation, and shared momentum</text>
  </g>

  <g transform="translate(490 146)" filter="url(#shadow)">
    <rect width="410" height="94" rx="30" fill="url(#bg1)" stroke="#E1BAC7" stroke-width="2"/>
    <circle cx="60" cy="47" r="24" fill="#F6E8EE"/>
    <circle cx="60" cy="47" r="12" fill="#F0C8D6" stroke="#7A4A5D" stroke-width="2"/>
    <path d="M60 33V61" stroke="#7A4A5D" stroke-width="2.5" stroke-linecap="round"/>
    <path d="M50 39C53 35 67 35 70 39" stroke="#7A4A5D" stroke-width="2.5" stroke-linecap="round"/>
    <path d="M50 55C53 59 67 59 70 55" stroke="#7A4A5D" stroke-width="2.5" stroke-linecap="round"/>
    <text x="106" y="44" fill="#5C3140" font-family="'Trebuchet MS', Arial, sans-serif" font-size="22" font-weight="700">new econ</text>
    <text x="106" y="69" fill="#7A4A5D" font-family="'Trebuchet MS', Arial, sans-serif" font-size="15">inventing new ways to pay</text>
  </g>
</svg>
