<svg width="980" height="150" viewBox="0 0 980 150" fill="none" xmlns="http://www.w3.org/2000/svg" role="img" aria-labelledby="title desc">
  <title id="title">bitpixi sticker row</title>
  <desc id="desc">A row of soft rose kawaii stickers representing AI, community, social platforms, virtual worlds, and creative tools.</desc>
  <defs>
    <linearGradient id="bg1" x1="0" y1="0" x2="180" y2="120" gradientUnits="userSpaceOnUse">
      <stop stop-color="#FFF8FA"/>
      <stop offset="1" stop-color="#F2D9E3"/>
    </linearGradient>
    <linearGradient id="bg2" x1="0" y1="0" x2="180" y2="120" gradientUnits="userSpaceOnUse">
      <stop stop-color="#FFF6FB"/>
      <stop offset="1" stop-color="#EFD7EF"/>
    </linearGradient>
    <linearGradient id="bg3" x1="0" y1="0" x2="180" y2="120" gradientUnits="userSpaceOnUse">
      <stop stop-color="#FFF9F7"/>
      <stop offset="1" stop-color="#F6E0D6"/>
    </linearGradient>
    <filter id="shadow" x="-20" y="-20" width="220" height="180" filterUnits="userSpaceOnUse" color-interpolation-filters="sRGB">
      <feDropShadow dx="0" dy="8" stdDeviation="10" flood-color="#B77791" flood-opacity="0.18"/>
    </filter>
  </defs>

  <g transform="translate(16 18)" filter="url(#shadow)">
    <rect width="174" height="106" rx="34" fill="url(#bg1)" stroke="#E2BAC7" stroke-width="2"/>
    <circle cx="58" cy="52" r="24" fill="#F7E5EB"/>
    <circle cx="50" cy="48" r="3.2" fill="#6D4454"/>
    <circle cx="66" cy="48" r="3.2" fill="#6D4454"/>
    <path d="M50 63C53.5 67 62.5 67 66 63" stroke="#6D4454" stroke-width="3" stroke-linecap="round"/>
    <path d="M42 35L49 27L54 38" fill="#F6D1DC"/>
    <path d="M74 35L67 27L62 38" fill="#F6D1DC"/>
    <text x="104" y="50" fill="#5C3140" font-family="'Trebuchet MS', Arial, sans-serif" font-size="18" font-weight="700">AI</text>
    <text x="104" y="72" fill="#7A4A5D" font-family="'Trebuchet MS', Arial, sans-serif" font-size="14">agentic play</text>
  </g>

  <g transform="translate(208 10)" filter="url(#shadow)">
    <rect width="174" height="112" rx="34" fill="url(#bg2)" stroke="#E0B8C8" stroke-width="2"/>
    <circle cx="54" cy="56" r="23" fill="#F6E7F4"/>
    <path d="M42 51H66" stroke="#7A4A5D" stroke-width="3" stroke-linecap="round"/>
    <path d="M42 60H66" stroke="#7A4A5D" stroke-width="3" stroke-linecap="round"/>
    <circle cx="47" cy="40" r="4" fill="#F7C7DA"/>
    <circle cx="61" cy="73" r="4" fill="#F7C7DA"/>
    <text x="98" y="52" fill="#5C3140" font-family="'Trebuchet MS', Arial, sans-serif" font-size="18" font-weight="700">social</text>
    <text x="98" y="74" fill="#7A4A5D" font-family="'Trebuchet MS', Arial, sans-serif" font-size="14">community</text>
  </g>

  <g transform="translate(400 18)" filter="url(#shadow)">
    <rect width="174" height="106" rx="34" fill="url(#bg3)" stroke="#E3B9C5" stroke-width="2"/>
    <circle cx="52" cy="53" r="23" fill="#FBE9E1"/>
    <circle cx="52" cy="53" r="9" fill="none" stroke="#7A4A5D" stroke-width="3"/>
    <path d="M52 30V24" stroke="#7A4A5D" stroke-width="3" stroke-linecap="round"/>
    <path d="M52 82V76" stroke="#7A4A5D" stroke-width="3" stroke-linecap="round"/>
    <path d="M29 53H23" stroke="#7A4A5D" stroke-width="3" stroke-linecap="round"/>
    <path d="M81 53H75" stroke="#7A4A5D" stroke-width="3" stroke-linecap="round"/>
    <text x="94" y="50" fill="#5C3140" font-family="'Trebuchet MS', Arial, sans-serif" font-size="18" font-weight="700">worlds</text>
    <text x="94" y="72" fill="#7A4A5D" font-family="'Trebuchet MS', Arial, sans-serif" font-size="14">story systems</text>
  </g>

  <g transform="translate(592 10)" filter="url(#shadow)">
    <rect width="174" height="112" rx="34" fill="url(#bg1)" stroke="#E2BAC7" stroke-width="2"/>
    <path d="M54 36C66 24 86 33 86 49C86 69 61 82 54 88C47 82 22 69 22 49C22 33 42 24 54 36Z" fill="#F6D4DE"/>
    <circle cx="47" cy="49" r="3" fill="#6D4454"/>
    <circle cx="61" cy="49" r="3" fill="#6D4454"/>
    <path d="M46 62C49.5 66 58.5 66 62 62" stroke="#6D4454" stroke-width="3" stroke-linecap="round"/>
    <text x="98" y="52" fill="#5C3140" font-family="'Trebuchet MS', Arial, sans-serif" font-size="18" font-weight="700">community</text>
    <text x="98" y="74" fill="#7A4A5D" font-family="'Trebuchet MS', Arial, sans-serif" font-size="14">events + care</text>
  </g>

  <g transform="translate(784 18)" filter="url(#shadow)">
    <rect width="174" height="106" rx="34" fill="url(#bg2)" stroke="#E0B8C8" stroke-width="2"/>
    <circle cx="52" cy="52" r="24" fill="#F6E7F4"/>
    <path d="M52 34L56 46L69 46L58 54L62 66L52 58L42 66L46 54L35 46L48 46L52 34Z" fill="#F2BACD"/>
    <text x="96" y="50" fill="#5C3140" font-family="'Trebuchet MS', Arial, sans-serif" font-size="18" font-weight="700">tools</text>
    <text x="96" y="72" fill="#7A4A5D" font-family="'Trebuchet MS', Arial, sans-serif" font-size="14">cute utility</text>
  </g>
</svg>
