<svg width="640" height="640" viewBox="0 0 640 640" fill="none" xmlns="http://www.w3.org/2000/svg" role="img" aria-labelledby="title desc">
  <title id="title">bitpixi avatar</title>
  <desc id="desc">A soft SVG avatar inspired by a voxel doll character with yellow pigtails, a powder-blue face, checker bows, and a circular frame.</desc>
  <defs>
    <linearGradient id="bg" x1="90" y1="82" x2="550" y2="558" gradientUnits="userSpaceOnUse">
      <stop stop-color="#D7A8CF"/>
      <stop offset="1" stop-color="#C893C6"/>
    </linearGradient>
    <linearGradient id="ring" x1="58" y1="42" x2="590" y2="604" gradientUnits="userSpaceOnUse">
      <stop stop-color="#FFFDFC"/>
      <stop offset="1" stop-color="#F6EEF4"/>
    </linearGradient>
    <linearGradient id="hair" x1="120" y1="120" x2="522" y2="328" gradientUnits="userSpaceOnUse">
      <stop stop-color="#F6E56A"/>
      <stop offset="1" stop-color="#F0D548"/>
    </linearGradient>
    <linearGradient id="skin" x1="248" y1="154" x2="408" y2="468" gradientUnits="userSpaceOnUse">
      <stop stop-color="#BDE9F0"/>
      <stop offset="1" stop-color="#9ED8E1"/>
    </linearGradient>
  </defs>

  <circle cx="320" cy="320" r="294" fill="url(#ring)"/>
  <circle cx="320" cy="320" r="272" fill="#FFFCFD" stroke="#F0E7EE" stroke-width="4"/>
  <circle cx="320" cy="320" r="248" fill="url(#bg)"/>

  <g opacity="0.94">
    <path d="M132 216L172 178L190 208L160 250L124 244Z" fill="url(#hair)"/>
    <path d="M164 168L128 150L118 180L150 196Z" fill="url(#hair)"/>
    <path d="M178 154L146 132L150 112L190 122L204 148Z" fill="url(#hair)"/>
    <path d="M208 138L192 108L216 96L242 116L234 146Z" fill="url(#hair)"/>
    <path d="M506 216L468 178L450 208L480 250L516 244Z" fill="url(#hair)"/>
    <path d="M474 168L510 150L520 180L488 196Z" fill="url(#hair)"/>
    <path d="M460 154L492 132L488 112L448 122L434 148Z" fill="url(#hair)"/>
    <path d="M430 138L446 108L422 96L396 116L404 146Z" fill="url(#hair)"/>
    <path d="M194 164L236 126H404L446 164L422 246H218Z" fill="url(#hair)"/>
    <path d="M210 250L188 364L220 474L262 470L242 252Z" fill="url(#hair)"/>
    <path d="M430 250L452 364L420 474L378 470L398 252Z" fill="url(#hair)"/>
  </g>

  <g>
    <rect x="182" y="150" width="28" height="28" fill="#5B63C8"/>
    <rect x="210" y="150" width="28" height="28" fill="#E9E3F6"/>
    <rect x="238" y="150" width="28" height="28" fill="#5B63C8"/>
    <rect x="196" y="178" width="28" height="28" fill="#E9E3F6"/>
    <rect x="224" y="178" width="28" height="28" fill="#5B63C8"/>
    <rect x="252" y="178" width="28" height="28" fill="#E9E3F6"/>
  </g>

  <g>
    <rect x="374" y="150" width="28" height="28" fill="#ED3C98"/>
    <rect x="402" y="150" width="28" height="28" fill="#F6C2DB"/>
    <rect x="430" y="150" width="28" height="28" fill="#ED3C98"/>
    <rect x="388" y="178" width="28" height="28" fill="#F6C2DB"/>
    <rect x="416" y="178" width="28" height="28" fill="#ED3C98"/>
    <rect x="444" y="178" width="28" height="28" fill="#F6C2DB"/>
  </g>

  <path d="M236 196L276 140H364L404 196L388 420L320 474L252 420Z" fill="url(#skin)" stroke="#89C8D2" stroke-width="6"/>

  <path d="M286 226H336" stroke="#6D50B5" stroke-width="12" stroke-linecap="square"/>
  <path d="M348 226H396" stroke="#6D50B5" stroke-width="12" stroke-linecap="square"/>

  <rect x="276" y="240" width="34" height="42" fill="#FDFDFC" stroke="#B6B3C8" stroke-width="4"/>
  <rect x="362" y="240" width="34" height="42" fill="#FDFDFC" stroke="#B6B3C8" stroke-width="4"/>
  <rect x="288" y="256" width="10" height="10" fill="#243754"/>
  <rect x="374" y="256" width="10" height="10" fill="#243754"/>

  <rect x="270" y="300" width="40" height="20" fill="#F39BC2"/>
  <rect x="364" y="300" width="40" height="20" fill="#F39BC2"/>

  <rect x="308" y="330" width="28" height="16" fill="#FF4D94"/>
  <path d="M286 384L304 398H336L354 384" stroke="#243754" stroke-width="8" stroke-linecap="square" stroke-linejoin="round"/>
  <rect x="304" y="398" width="14" height="14" fill="#243754"/>
  <rect x="322" y="398" width="14" height="14" fill="#243754"/>

  <path d="M258 456L216 494L194 560L280 560L286 500Z" fill="#CFE0EA"/>
  <path d="M382 456L424 494L446 560L360 560L354 500Z" fill="#CFE0EA"/>
  <path d="M214 488L244 462L290 492L280 560H212Z" fill="#E6EDF2" stroke="#C8D2D9" stroke-width="4"/>
  <path d="M426 488L396 462L350 492L360 560H428Z" fill="#E6EDF2" stroke="#C8D2D9" stroke-width="4"/>
  <path d="M248 470L274 494" stroke="#EDB4D7" stroke-width="6" stroke-linecap="square"/>
  <path d="M392 470L366 494" stroke="#EDB4D7" stroke-width="6" stroke-linecap="square"/>

  <path d="M282 474H358L388 520H252Z" fill="#6FC0C8"/>
  <path d="M292 520C310 502 330 502 348 520" stroke="#86DD8A" stroke-width="12" stroke-linecap="round"/>
  <path d="M286 532C304 514 336 514 354 532" stroke="#B4F58E" stroke-width="10" stroke-linecap="round"/>
</svg>
