<svg xmlns="http://www.w3.org/2000/svg" width="1000" height="1000" viewBox="0 0 40 40" shape-rendering="crispEdges"><rect width="40" height="40" fill="#F8EDF2"/><rect x="18" y="2" width="1" height="1" fill="#5B3747"/><rect x="19" y="3" width="3" height="1" fill="#5B3747"/><rect x="24" y="3" width="1" height="1" fill="#5B3747"/><rect x="14" y="4" width="1" height="1" fill="#5B3747"/><rect x="18" y="4" width="1" height="1" fill="#5B3747"/><rect x="22" y="4" width="1" height="1" fill="#5B3747"/><rect x="26" y="4" width="1" height="1" fill="#5B3747"/><rect x="18" y="5" width="1" height="1" fill="#5B3747"/><rect x="22" y="5" width="1" height="1" fill="#5B3747"/><rect x="12" y="6" width="1" height="1" fill="#5B3747"/><rect x="16" y="6" width="1" height="1" fill="#5B3747"/><rect x="18" y="6" width="5" height="1" fill="#5B3747"/><rect x="24" y="6" width="1" height="1" fill="#5B3747"/><rect x="28" y="6" width="1" height="1" fill="#5B3747"/><rect x="6" y="7" width="1" height="1" fill="#5B3747"/><rect x="12" y="7" width="1" height="1" fill="#5B3747"/><rect x="15" y="7" width="1" height="1" fill="#5B3747"/><rect x="17" y="7" width="1" height="1" fill="#5B3747"/><rect x="19" y="7" width="1" height="1" fill="#5B3747"/><rect x="22" y="7" width="2" height="1" fill="#5B3747"/><rect x="25" y="7" width="1" height="1" fill="#5B3747"/><rect x="34" y="7" width="1" height="1" fill="#5B3747"/><rect x="11" y="8" width="2" height="1" fill="#5B3747"/><rect x="14" y="8" width="1" height="1" fill="#5B3747"/><rect x="16" y="8" width="2" height="1" fill="#5B3747"/><rect x="19" y="8" width="3" height="1" fill="#5B3747"/><rect x="23" y="8" width="2" height="1" fill="#5B3747"/><rect x="26" y="8" width="1" height="1" fill="#5B3747"/><rect x="29" y="8" width="1" height="1" fill="#5B3747"/><rect x="7" y="9" width="1" height="1" fill="#5B3747"/><rect x="9" y="9" width="2" height="1" fill="#5B3747"/><rect x="12" y="9" width="1" height="1" fill="#5B3747"/><rect x="14" y="9" width="3" height="1" fill="#5B3747"/><rect x="18" y="9" width="1" height="1" fill="#5B3747"/><rect x="21" y="9" width="2" height="1" fill="#5B3747"/><rect x="24" y="9" width="3" height="1" fill="#5B3747"/><rect x="30" y="9" width="1" height="1" fill="#5B3747"/><rect x="33" y="9" width="2" height="1" fill="#5B3747"/><rect x="6" y="10" width="1" height="1" fill="#5B3747"/><rect x="13" y="10" width="4" height="1" fill="#5B3747"/><rect x="26" y="10" width="2" height="1" fill="#5B3747"/><rect x="34" y="10" width="1" height="1" fill="#5B3747"/><rect x="6" y="11" width="1" height="1" fill="#5B3747"/><rect x="11" y="11" width="3" height="1" fill="#5B3747"/><rect x="16" y="11" width="1" height="1" fill="#5B3747"/><rect x="21" y="11" width="2" height="1" fill="#5B3747"/><rect x="28" y="11" width="1" height="1" fill="#5B3747"/><rect x="33" y="11" width="2" height="1" fill="#5B3747"/><rect x="7" y="12" width="5" height="1" fill="#5B3747"/><rect x="14" y="12" width="5" height="1" fill="#5B3747"/><rect x="21" y="12" width="6" height="1" fill="#5B3747"/><rect x="28" y="12" width="4" height="1" fill="#5B3747"/><rect x="33" y="12" width="1" height="1" fill="#5B3747"/><rect x="10" y="13" width="5" height="1" fill="#5B3747"/><rect x="16" y="13" width="7" height="1" fill="#5B3747"/><rect x="24" y="13" width="1" height="1" fill="#5B3747"/><rect x="27" y="13" width="4" height="1" fill="#5B3747"/><rect x="10" y="14" width="1" height="1" fill="#5B3747"/><rect x="12" y="14" width="1" height="1" fill="#5B3747"/><rect x="17" y="14" width="1" height="1" fill="#5B3747"/><rect x="19" y="14" width="1" height="1" fill="#5B3747"/><rect x="21" y="14" width="1" height="1" fill="#5B3747"/><rect x="24" y="14" width="1" height="1" fill="#5B3747"/><rect x="26" y="14" width="1" height="1" fill="#5B3747"/><rect x="28" y="14" width="1" height="1" fill="#5B3747"/><rect x="30" y="14" width="1" height="1" fill="#5B3747"/><rect x="12" y="15" width="1" height="1" fill="#5B3747"/><rect x="28" y="15" width="1" height="1" fill="#5B3747"/><rect x="10" y="16" width="1" height="1" fill="#5B3747"/><rect x="15" y="16" width="1" height="1" fill="#5B3747"/><rect x="17" y="16" width="2" height="1" fill="#5B3747"/><rect x="22" y="16" width="2" height="1" fill="#5B3747"/><rect x="25" y="16" width="1" height="1" fill="#5B3747"/><rect x="30" y="16" width="1" height="1" fill="#5B3747"/><rect x="11" y="17" width="1" height="1" fill="#5B3747"/><rect x="13" y="17" width="6" height="1" fill="#5B3747"/><rect x="22" y="17" width="6" height="1" fill="#5B3747"/><rect x="29" y="17" width="1" height="1" fill="#5B3747"/><rect x="11" y="18" width="1" height="1" fill="#5B3747"/><rect x="14" y="18" width="1" height="1" fill="#5B3747"/><rect x="16" y="18" width="2" height="1" fill="#5B3747"/><rect x="23" y="18" width="2" height="1" fill="#5B3747"/><rect x="26" y="18" width="1" height="1" fill="#5B3747"/><rect x="29" y="18" width="1" height="1" fill="#5B3747"/><rect x="10" y="19" width="1" height="1" fill="#5B3747"/><rect x="30" y="19" width="1" height="1" fill="#5B3747"/><rect x="10" y="20" width="2" height="1" fill="#5B3747"/><rect x="13" y="20" width="1" height="1" fill="#5B3747"/><rect x="27" y="20" width="1" height="1" fill="#5B3747"/><rect x="29" y="20" width="2" height="1" fill="#5B3747"/><rect x="10" y="21" width="1" height="1" fill="#5B3747"/><rect x="12" y="21" width="2" height="1" fill="#5B3747"/><rect x="27" y="21" width="2" height="1" fill="#5B3747"/><rect x="30" y="21" width="1" height="1" fill="#5B3747"/><rect x="9" y="22" width="2" height="1" fill="#5B3747"/><rect x="13" y="22" width="1" height="1" fill="#5B3747"/><rect x="27" y="22" width="1" height="1" fill="#5B3747"/><rect x="30" y="22" width="1" height="1" fill="#5B3747"/><rect x="10" y="23" width="1" height="1" fill="#5B3747"/><rect x="14" y="23" width="1" height="1" fill="#5B3747"/><rect x="19" y="23" width="3" height="1" fill="#5B3747"/><rect x="26" y="23" width="1" height="1" fill="#5B3747"/><rect x="9" y="24" width="1" height="1" fill="#5B3747"/><rect x="14" y="24" width="2" height="1" fill="#5B3747"/><rect x="25" y="24" width="2" height="1" fill="#5B3747"/><rect x="31" y="24" width="1" height="1" fill="#5B3747"/><rect x="14" y="25" width="3" height="1" fill="#5B3747"/><rect x="24" y="25" width="3" height="1" fill="#5B3747"/><rect x="10" y="26" width="1" height="1" fill="#5B3747"/><rect x="13" y="26" width="5" height="1" fill="#5B3747"/><rect x="23" y="26" width="3" height="1" fill="#5B3747"/><rect x="27" y="26" width="1" height="1" fill="#5B3747"/><rect x="10" y="27" width="1" height="1" fill="#5B3747"/><rect x="13" y="27" width="1" height="1" fill="#5B3747"/><rect x="15" y="27" width="11" height="1" fill="#5B3747"/><rect x="30" y="27" width="1" height="1" fill="#5B3747"/><rect x="8" y="28" width="1" height="1" fill="#5B3747"/><rect x="10" y="28" width="1" height="1" fill="#5B3747"/><rect x="15" y="28" width="3" height="1" fill="#5B3747"/><rect x="23" y="28" width="3" height="1" fill="#5B3747"/><rect x="30" y="28" width="1" height="1" fill="#5B3747"/><rect x="32" y="28" width="1" height="1" fill="#5B3747"/><rect x="10" y="29" width="1" height="1" fill="#5B3747"/><rect x="15" y="29" width="2" height="1" fill="#5B3747"/><rect x="24" y="29" width="2" height="1" fill="#5B3747"/><rect x="30" y="29" width="1" height="1" fill="#5B3747"/><rect x="7" y="30" width="1" height="1" fill="#5B3747"/><rect x="10" y="30" width="1" height="1" fill="#5B3747"/><rect x="15" y="30" width="1" height="1" fill="#5B3747"/><rect x="25" y="30" width="1" height="1" fill="#5B3747"/><rect x="30" y="30" width="1" height="1" fill="#5B3747"/><rect x="33" y="30" width="1" height="1" fill="#5B3747"/><rect x="9" y="31" width="2" height="1" fill="#5B3747"/><rect x="15" y="31" width="5" height="1" fill="#5B3747"/><rect x="21" y="31" width="5" height="1" fill="#5B3747"/><rect x="30" y="31" width="2" height="1" fill="#5B3747"/><rect x="6" y="32" width="1" height="1" fill="#5B3747"/><rect x="9" y="32" width="2" height="1" fill="#5B3747"/><rect x="15" y="32" width="2" height="1" fill="#5B3747"/><rect x="18" y="32" width="2" height="1" fill="#5B3747"/><rect x="21" y="32" width="2" height="1" fill="#5B3747"/><rect x="24" y="32" width="2" height="1" fill="#5B3747"/><rect x="29" y="32" width="3" height="1" fill="#5B3747"/><rect x="34" y="32" width="1" height="1" fill="#5B3747"/><rect x="8" y="33" width="3" height="1" fill="#5B3747"/><rect x="15" y="33" width="11" height="1" fill="#5B3747"/><rect x="30" y="33" width="3" height="1" fill="#5B3747"/><rect x="34" y="33" width="1" height="1" fill="#5B3747"/><rect x="8" y="34" width="1" height="1" fill="#5B3747"/><rect x="10" y="34" width="1" height="1" fill="#5B3747"/><rect x="15" y="34" width="11" height="1" fill="#5B3747"/><rect x="30" y="34" width="2" height="1" fill="#5B3747"/><rect x="33" y="34" width="1" height="1" fill="#5B3747"/><rect x="6" y="35" width="1" height="1" fill="#5B3747"/><rect x="8" y="35" width="3" height="1" fill="#5B3747"/><rect x="15" y="35" width="11" height="1" fill="#5B3747"/><rect x="30" y="35" width="4" height="1" fill="#5B3747"/><rect x="35" y="35" width="1" height="1" fill="#5B3747"/><rect x="7" y="36" width="2" height="1" fill="#5B3747"/><rect x="10" y="36" width="1" height="1" fill="#5B3747"/><rect x="15" y="36" width="11" height="1" fill="#5B3747"/><rect x="30" y="36" width="1" height="1" fill="#5B3747"/><rect x="32" y="36" width="2" height="1" fill="#5B3747"/><rect x="35" y="36" width="1" height="1" fill="#5B3747"/><rect x="7" y="37" width="4" height="1" fill="#5B3747"/><rect x="15" y="37" width="11" height="1" fill="#5B3747"/><rect x="30" y="37" width="2" height="1" fill="#5B3747"/><rect x="33" y="37" width="3" height="1" fill="#5B3747"/><rect x="6" y="38" width="3" height="1" fill="#5B3747"/><rect x="10" y="38" width="2" height="1" fill="#5B3747"/><rect x="15" y="38" width="11" height="1" fill="#5B3747"/><rect x="30" y="38" width="6" height="1" fill="#5B3747"/><rect x="7" y="39" width="5" height="1" fill="#5B3747"/><rect x="15" y="39" width="11" height="1" fill="#5B3747"/><rect x="29" y="39" width="3" height="1" fill="#5B3747"/><rect x="33" y="39" width="2" height="1" fill="#5B3747"/></svg>