<svg width="1200" height="720" viewBox="0 0 1200 720" fill="none" xmlns="http://www.w3.org/2000/svg" role="img" aria-labelledby="title desc">
  <title id="title">Bizniz Quest Ask card</title>
  <desc id="desc">A playful project card for Bizniz Quest Ask, a playable social game experience distributed through Reddit with a folder-and-Snoo motif.</desc>
  <defs>
    <linearGradient id="bg" x1="100" y1="44" x2="1100" y2="680" gradientUnits="userSpaceOnUse">
      <stop stop-color="#FFF9F7"/>
      <stop offset="1" stop-color="#F4DED0"/>
    </linearGradient>
    <linearGradient id="folder" x1="0" y1="0" x2="340" y2="450" gradientUnits="userSpaceOnUse">
      <stop stop-color="#FFFDFC"/>
      <stop offset="1" stop-color="#FAECE2"/>
    </linearGradient>
  </defs>
  <rect x="28" y="28" width="1144" height="664" rx="42" fill="url(#bg)"/>
  <rect x="28" y="28" width="1144" height="664" rx="42" stroke="#E3C2B7" stroke-width="3"/>
  <path d="M1002 86L1010 106L1030 114L1010 122L1002 142L994 122L974 114L994 106L1002 86Z" fill="#E7BEC1"/>
  <path d="M946 132L951 145L964 150L951 155L946 168L941 155L928 150L941 145L946 132Z" fill="#F1D6CB"/>
  <circle cx="154" cy="584" r="86" fill="#FAEEE7"/>

  <rect x="90" y="116" width="354" height="474" rx="32" fill="url(#folder)" stroke="#E4C4B8" stroke-width="3"/>
  <path d="M132 214H250L280 246H402V512C402 533 385 550 364 550H160C139 550 122 533 122 512V224C122 219 126 214 132 214Z" fill="#F0D9C8"/>
  <path d="M132 214H244C252 214 258 217 262 222L280 246H122V224C122 219 126 214 132 214Z" fill="#E8C9B5"/>
  <circle cx="262" cy="372" r="74" fill="#FFF8F2"/>
  <circle cx="242" cy="362" r="8" fill="#5E3A3C"/>
  <circle cx="282" cy="362" r="8" fill="#5E3A3C"/>
  <path d="M242 392C252 402 272 402 282 392" stroke="#5E3A3C" stroke-width="5" stroke-linecap="round"/>
  <circle cx="262" cy="332" r="18" fill="none" stroke="#5E3A3C" stroke-width="5"/>
  <path d="M278 320L304 300" stroke="#5E3A3C" stroke-width="4" stroke-linecap="round"/>
  <circle cx="312" cy="292" r="10" fill="#F7C9B5" stroke="#5E3A3C" stroke-width="3"/>
  <path d="M174 486H350" stroke="#D1A79B" stroke-width="5" stroke-linecap="round"/>
  <path d="M174 514H314" stroke="#D1A79B" stroke-width="5" stroke-linecap="round"/>
  <rect x="136" y="566" width="262" height="52" rx="18" fill="#F5DFD7"/>
  <text x="267" y="599" text-anchor="middle" fill="#5E3A3C" font-family="'Trebuchet MS', Arial, sans-serif" font-size="22" font-weight="700">playable on Reddit</text>

  <text x="490" y="220" fill="#513134" font-family="Georgia, 'Times New Roman', serif" font-size="62" font-weight="700">Bizniz Quest</text>
  <text x="490" y="282" fill="#513134" font-family="Georgia, 'Times New Roman', serif" font-size="62" font-weight="700">Ask</text>
  <text x="492" y="344" fill="#775457" font-family="'Trebuchet MS', Arial, sans-serif" font-size="28">Reddit-native social game</text>
  <text x="492" y="384" fill="#775457" font-family="'Trebuchet MS', Arial, sans-serif" font-size="28">turning asks into participation and play</text>

  <rect x="492" y="452" width="130" height="56" rx="28" fill="#FFF9F8" stroke="#E2C4BA" stroke-width="2"/>
  <rect x="644" y="452" width="168" height="56" rx="28" fill="#F1D6CB"/>
  <rect x="834" y="452" width="212" height="56" rx="28" fill="#FFF9F8" stroke="#E2C4BA" stroke-width="2"/>
  <text x="557" y="487" text-anchor="middle" fill="#5C3639" font-family="'Trebuchet MS', Arial, sans-serif" font-size="22" font-weight="600">Reddit</text>
  <text x="728" y="487" text-anchor="middle" fill="#5C3639" font-family="'Trebuchet MS', Arial, sans-serif" font-size="22" font-weight="600">playable</text>
  <text x="940" y="487" text-anchor="middle" fill="#5C3639" font-family="'Trebuchet MS', Arial, sans-serif" font-size="22" font-weight="600">community loop</text>

  <path d="M896 612L904 632L924 640L904 648L896 668L888 648L868 640L888 632L896 612Z" fill="#E7BEC1"/>
</svg>
