<svg width="1200" height="720" viewBox="0 0 1200 720" fill="none" xmlns="http://www.w3.org/2000/svg" role="img" aria-labelledby="title desc">
  <title id="title">FieldMate card</title>
  <desc id="desc">A soft peach and rose project card for FieldMate, a guided household energy data capture tool.</desc>
  <defs>
    <linearGradient id="bg" x1="90" y1="48" x2="1110" y2="676" gradientUnits="userSpaceOnUse">
      <stop stop-color="#FFF8FA"/>
      <stop offset="1" stop-color="#F6DCC9"/>
    </linearGradient>
    <linearGradient id="phone" x1="0" y1="0" x2="330" y2="460" gradientUnits="userSpaceOnUse">
      <stop stop-color="#FFFDFD"/>
      <stop offset="1" stop-color="#F8E4D8"/>
    </linearGradient>
  </defs>
  <rect x="28" y="28" width="1144" height="664" rx="42" fill="url(#bg)"/>
  <rect x="28" y="28" width="1144" height="664" rx="42" stroke="#E8BDAE" stroke-width="3"/>
  <path d="M1000 86L1008 106L1028 114L1008 122L1000 142L992 122L972 114L992 106L1000 86Z" fill="#F2B985"/>
  <path d="M944 132L949 145L962 150L949 155L944 168L939 155L926 150L939 145L944 132Z" fill="#EFC8D8"/>
  <circle cx="154" cy="586" r="88" fill="#FAEEE8"/>

  <rect x="94" y="112" width="330" height="488" rx="42" fill="url(#phone)" stroke="#E2B8BA" stroke-width="3"/>
  <rect x="132" y="156" width="254" height="392" rx="28" fill="#FFF8FA" stroke="#EBCAC5" stroke-width="3"/>
  <rect x="164" y="190" width="190" height="82" rx="22" fill="#F7D9C8"/>
  <path d="M190 236H326" stroke="#D08B65" stroke-width="6" stroke-linecap="round"/>
  <path d="M190 254H286" stroke="#E7B2C5" stroke-width="6" stroke-linecap="round"/>
  <rect x="164" y="304" width="78" height="78" rx="18" fill="#F3C8D8"/>
  <rect x="276" y="304" width="78" height="78" rx="18" fill="#F7C47E"/>
  <path d="M184 352L202 332L220 352" stroke="#7A4A5D" stroke-width="6" stroke-linecap="round" stroke-linejoin="round"/>
  <rect x="300" y="324" width="30" height="42" rx="8" fill="#FFF9FB"/>
  <circle cx="315" cy="345" r="10" fill="#7A4A5D"/>
  <rect x="164" y="418" width="190" height="72" rx="20" fill="#F8E8EE"/>
  <text x="259" y="464" text-anchor="middle" fill="#7A4A5D" font-family="'Trebuchet MS', Arial, sans-serif" font-size="34" font-weight="700">$82</text>

  <text x="500" y="224" fill="#4F2938" font-family="Georgia, 'Times New Roman', serif" font-size="66" font-weight="700">FieldMate</text>
  <text x="502" y="306" fill="#75485A" font-family="'Trebuchet MS', Arial, sans-serif" font-size="28">resident-assisted grid-edge visibility</text>
  <text x="502" y="346" fill="#75485A" font-family="'Trebuchet MS', Arial, sans-serif" font-size="28">for safer property-level energy data</text>

  <rect x="502" y="430" width="178" height="56" rx="28" fill="#FFF9FB" stroke="#E2B8C5" stroke-width="2"/>
  <rect x="704" y="430" width="176" height="56" rx="28" fill="#F7C47E"/>
  <rect x="904" y="430" width="164" height="56" rx="28" fill="#FFF9FB" stroke="#E2B8C5" stroke-width="2"/>
  <text x="591" y="465" text-anchor="middle" fill="#5C3140" font-family="'Trebuchet MS', Arial, sans-serif" font-size="22" font-weight="600">energy data</text>
  <text x="792" y="465" text-anchor="middle" fill="#5C3140" font-family="'Trebuchet MS', Arial, sans-serif" font-size="22" font-weight="600">capture UX</text>
  <text x="986" y="465" text-anchor="middle" fill="#5C3140" font-family="'Trebuchet MS', Arial, sans-serif" font-size="22" font-weight="600">rewards</text>

  <path d="M864 608C876 586 908 590 916 616C924 646 888 670 864 680C840 670 804 646 812 616C820 590 852 586 864 608Z" fill="#EFC8D8"/>
</svg>
