<svg width="1200" height="720" viewBox="0 0 1200 720" fill="none" xmlns="http://www.w3.org/2000/svg" role="img" aria-labelledby="title desc">
  <title id="title">Four Rooms Research Lab card</title>
  <desc id="desc">A soft rose project card for Four Rooms Research Lab, a behavioral experiment prototype for artificial agents.</desc>
  <defs>
    <linearGradient id="bg" x1="90" y1="48" x2="1110" y2="676" gradientUnits="userSpaceOnUse">
      <stop stop-color="#FFF8FA"/>
      <stop offset="1" stop-color="#F0D8E7"/>
    </linearGradient>
    <linearGradient id="lab" x1="0" y1="0" x2="356" y2="474" gradientUnits="userSpaceOnUse">
      <stop stop-color="#FFFDFD"/>
      <stop offset="1" stop-color="#F8E8EF"/>
    </linearGradient>
  </defs>
  <rect x="28" y="28" width="1144" height="664" rx="42" fill="url(#bg)"/>
  <rect x="28" y="28" width="1144" height="664" rx="42" stroke="#E2BACB" stroke-width="3"/>
  <path d="M1000 86L1008 106L1028 114L1008 122L1000 142L992 122L972 114L992 106L1000 86Z" fill="#E7BFD0"/>
  <path d="M944 132L949 145L962 150L949 155L944 168L939 155L926 150L939 145L944 132Z" fill="#F7C47E"/>
  <circle cx="156" cy="586" r="88" fill="#F9EEF4"/>

  <rect x="88" y="116" width="356" height="474" rx="34" fill="url(#lab)" stroke="#E1BCCD" stroke-width="3"/>
  <rect x="132" y="160" width="112" height="112" rx="24" fill="#FFF9FB" stroke="#E2B9C8" stroke-width="3"/>
  <rect x="288" y="160" width="112" height="112" rx="24" fill="#F3D5E0" stroke="#E2B9C8" stroke-width="3"/>
  <rect x="132" y="316" width="112" height="112" rx="24" fill="#F7C47E" stroke="#D39A64" stroke-width="3"/>
  <rect x="288" y="316" width="112" height="112" rx="24" fill="#FFF9FB" stroke="#E2B9C8" stroke-width="3"/>
  <path d="M244 216H288" stroke="#8A5D73" stroke-width="8" stroke-linecap="round"/>
  <path d="M188 272V316" stroke="#8A5D73" stroke-width="8" stroke-linecap="round"/>
  <path d="M344 272V316" stroke="#8A5D73" stroke-width="8" stroke-linecap="round"/>
  <path d="M244 372H288" stroke="#8A5D73" stroke-width="8" stroke-linecap="round"/>
  <circle cx="188" cy="216" r="18" fill="#8A5D73"/>
  <circle cx="344" cy="216" r="18" fill="#FFF9FB"/>
  <circle cx="188" cy="372" r="18" fill="#FFF9FB"/>
  <circle cx="344" cy="372" r="18" fill="#8A5D73"/>
  <path d="M172 492C204 462 236 462 268 492C300 522 332 522 364 492" stroke="#D39AB2" stroke-width="8" stroke-linecap="round"/>

  <text x="500" y="204" fill="#4F2938" font-family="Georgia, 'Times New Roman', serif" font-size="62" font-weight="700">Four Rooms</text>
  <text x="500" y="270" fill="#4F2938" font-family="Georgia, 'Times New Roman', serif" font-size="62" font-weight="700">Research Lab</text>
  <text x="502" y="346" fill="#754A5B" font-family="'Trebuchet MS', Arial, sans-serif" font-size="28">behavioral experiment prototype</text>
  <text x="502" y="386" fill="#754A5B" font-family="'Trebuchet MS', Arial, sans-serif" font-size="28">for artificial agents and room logic</text>

  <rect x="502" y="458" width="172" height="56" rx="28" fill="#FFF9FB" stroke="#E2B9C8" stroke-width="2"/>
  <rect x="698" y="458" width="184" height="56" rx="28" fill="#F0D4E0"/>
  <rect x="906" y="458" width="178" height="56" rx="28" fill="#FFF9FB" stroke="#E2B9C8" stroke-width="2"/>
  <text x="588" y="493" text-anchor="middle" fill="#5C3140" font-family="'Trebuchet MS', Arial, sans-serif" font-size="22" font-weight="600">agent lab</text>
  <text x="790" y="493" text-anchor="middle" fill="#5C3140" font-family="'Trebuchet MS', Arial, sans-serif" font-size="22" font-weight="600">behavior UX</text>
  <text x="995" y="493" text-anchor="middle" fill="#5C3140" font-family="'Trebuchet MS', Arial, sans-serif" font-size="22" font-weight="600">simulation</text>
</svg>
