<svg width="1200" height="720" viewBox="0 0 1200 720" fill="none" xmlns="http://www.w3.org/2000/svg" role="img" aria-labelledby="title desc">
  <title id="title">Get a Job card</title>
  <desc id="desc">A warm apricot project card for an agentic job-search skill and workflow tool.</desc>
  <defs>
    <linearGradient id="bg" x1="96" y1="46" x2="1108" y2="674" gradientUnits="userSpaceOnUse">
      <stop stop-color="#FFF9F5"/>
      <stop offset="1" stop-color="#F3DDD1"/>
    </linearGradient>
    <linearGradient id="desk" x1="0" y1="0" x2="360" y2="460" gradientUnits="userSpaceOnUse">
      <stop stop-color="#FFFDFC"/>
      <stop offset="1" stop-color="#F8ECE5"/>
    </linearGradient>
  </defs>
  <rect x="28" y="28" width="1144" height="664" rx="42" fill="url(#bg)"/>
  <rect x="28" y="28" width="1144" height="664" rx="42" stroke="#E3C3B6" stroke-width="3"/>
  <path d="M1000 88L1008 108L1028 116L1008 124L1000 144L992 124L972 116L992 108L1000 88Z" fill="#EFCFBC"/>
  <path d="M944 134L949 147L962 152L949 157L944 170L939 157L926 152L939 147L944 134Z" fill="#F0D6CB"/>
  <circle cx="162" cy="586" r="88" fill="#FAEFE8"/>

  <rect x="92" y="116" width="350" height="474" rx="32" fill="url(#desk)" stroke="#E2C4B8" stroke-width="3"/>
  <rect x="128" y="182" width="212" height="278" rx="20" fill="#FFF9F7" stroke="#E4C7BC" stroke-width="2"/>
  <rect x="158" y="220" width="152" height="18" rx="9" fill="#F3DDD2"/>
  <rect x="158" y="260" width="138" height="14" rx="7" fill="#F8ECE5"/>
  <rect x="158" y="292" width="122" height="14" rx="7" fill="#F8ECE5"/>
  <rect x="158" y="324" width="144" height="14" rx="7" fill="#F8ECE5"/>
  <path d="M150 398L178 426L232 368" stroke="#CF9D93" stroke-width="8" stroke-linecap="round" stroke-linejoin="round"/>
  <circle cx="336" cy="254" r="42" fill="#F1DDD2"/>
  <circle cx="324" cy="248" r="5" fill="#6D4454"/>
  <circle cx="348" cy="248" r="5" fill="#6D4454"/>
  <path d="M324 268C330 276 342 276 348 268" stroke="#6D4454" stroke-width="4" stroke-linecap="round"/>
  <path d="M318 224L330 210L338 230" fill="#F2CDBB"/>
  <path d="M354 224L342 210L334 230" fill="#F2CDBB"/>
  <rect x="170" y="492" width="194" height="54" rx="16" fill="#F1D8CD"/>
  <text x="267" y="526" text-anchor="middle" fill="#5C3140" font-family="'Trebuchet MS', Arial, sans-serif" font-size="22" font-weight="700">agentic workflow</text>

  <text x="500" y="220" fill="#4F2938" font-family="Georgia, 'Times New Roman', serif" font-size="66" font-weight="700">get-a-job</text>
  <text x="502" y="306" fill="#765062" font-family="'Trebuchet MS', Arial, sans-serif" font-size="28">job search ops with structure</text>
  <text x="502" y="346" fill="#765062" font-family="'Trebuchet MS', Arial, sans-serif" font-size="28">for leads, materials, and follow-through</text>

  <rect x="502" y="430" width="166" height="56" rx="28" fill="#FFF9F7" stroke="#E2C4BA" stroke-width="2"/>
  <rect x="690" y="430" width="192" height="56" rx="28" fill="#F0D6CB"/>
  <rect x="904" y="430" width="154" height="56" rx="28" fill="#FFF9F7" stroke="#E2C4BA" stroke-width="2"/>
  <text x="585" y="465" text-anchor="middle" fill="#5D3344" font-family="'Trebuchet MS', Arial, sans-serif" font-size="22" font-weight="600">career ops</text>
  <text x="786" y="465" text-anchor="middle" fill="#5D3344" font-family="'Trebuchet MS', Arial, sans-serif" font-size="22" font-weight="600">agentic workflow</text>
  <text x="981" y="465" text-anchor="middle" fill="#5D3344" font-family="'Trebuchet MS', Arial, sans-serif" font-size="22" font-weight="600">execution</text>

  <path d="M860 610C874 588 906 596 910 624C914 656 876 678 860 688C846 678 808 656 812 624C816 596 846 588 860 610Z" fill="#EFCFBC"/>
</svg>
