<svg width="1200" height="720" viewBox="0 0 1200 720" fill="none" xmlns="http://www.w3.org/2000/svg" role="img" aria-labelledby="title desc">
  <title id="title">Impress Your Valentine card</title>
  <desc id="desc">A soft rose project card for Impress Your Valentine, a telephony product prototype that won second place in a hackathon.</desc>
  <defs>
    <linearGradient id="bg" x1="90" y1="50" x2="1110" y2="670" gradientUnits="userSpaceOnUse">
      <stop stop-color="#FFF7FA"/>
      <stop offset="1" stop-color="#F6D5E1"/>
    </linearGradient>
    <linearGradient id="phone" x1="0" y1="0" x2="280" y2="500" gradientUnits="userSpaceOnUse">
      <stop stop-color="#FFFDFD"/>
      <stop offset="1" stop-color="#FBE8EE"/>
    </linearGradient>
  </defs>
  <rect x="28" y="28" width="1144" height="664" rx="42" fill="url(#bg)"/>
  <rect x="28" y="28" width="1144" height="664" rx="42" stroke="#E3B7C8" stroke-width="3"/>
  <circle cx="1034" cy="128" r="116" fill="#F7E3EC"/>
  <circle cx="156" cy="590" r="88" fill="#F9EBF0"/>

  <rect x="96" y="120" width="286" height="478" rx="42" fill="url(#phone)" stroke="#E1B6C6" stroke-width="3"/>
  <rect x="124" y="170" width="230" height="324" rx="28" fill="#FFF4F8" stroke="#E7C0CC" stroke-width="2"/>
  <circle cx="239" cy="141" r="10" fill="#E9C1CE"/>
  <path d="M194 262C194 231 219 206 250 206C281 206 306 231 306 262C306 288 281 308 264 320V350H236V320C219 308 194 288 194 262Z" fill="#F5D0DD"/>
  <path d="M250 236L258 250H274L261 260L266 276L250 266L234 276L239 260L226 250H242L250 236Z" fill="#C97C98"/>
  <rect x="144" y="388" width="190" height="68" rx="20" fill="#F2D2DC"/>
  <text x="239" y="430" text-anchor="middle" fill="#5C3140" font-family="'Trebuchet MS', Arial, sans-serif" font-size="22" font-weight="700">call flow live</text>
  <path d="M156 540C180 514 220 532 220 565C220 603 173 633 156 644C139 633 92 603 92 565C92 532 132 514 156 540Z" fill="#F4C9D7"/>
  <path d="M318 540C342 514 382 532 382 565C382 603 335 633 318 644C301 633 254 603 254 565C254 532 294 514 318 540Z" fill="#F4C9D7"/>

  <text x="470" y="220" fill="#4F2937" font-family="Georgia, 'Times New Roman', serif" font-size="62" font-weight="700">Impress Your</text>
  <text x="470" y="282" fill="#4F2937" font-family="Georgia, 'Times New Roman', serif" font-size="62" font-weight="700">Valentine</text>
  <text x="472" y="344" fill="#76495C" font-family="'Trebuchet MS', Arial, sans-serif" font-size="28">full telephony pipeline</text>
  <text x="472" y="384" fill="#76495C" font-family="'Trebuchet MS', Arial, sans-serif" font-size="28">hackathon build, 2nd place finish</text>

  <rect x="472" y="452" width="144" height="56" rx="28" fill="#FFF9FB" stroke="#E3B9C7" stroke-width="2"/>
  <rect x="636" y="452" width="148" height="56" rx="28" fill="#F1CEDA"/>
  <rect x="804" y="452" width="236" height="56" rx="28" fill="#FFF9FB" stroke="#E3B9C7" stroke-width="2"/>
  <text x="544" y="487" text-anchor="middle" fill="#5C3140" font-family="'Trebuchet MS', Arial, sans-serif" font-size="22" font-weight="600">voice UX</text>
  <text x="710" y="487" text-anchor="middle" fill="#5C3140" font-family="'Trebuchet MS', Arial, sans-serif" font-size="22" font-weight="600">Twilio</text>
  <text x="922" y="487" text-anchor="middle" fill="#5C3140" font-family="'Trebuchet MS', Arial, sans-serif" font-size="22" font-weight="600">2nd place build</text>
</svg>
