<svg width="1200" height="720" viewBox="0 0 1200 720" fill="none" xmlns="http://www.w3.org/2000/svg" role="img" aria-labelledby="title desc">
  <title id="title">Normies Button card</title>
  <desc id="desc">A soft rose and orange project card for Normies Button, a multiplayer timing game based on Normies Types.</desc>
  <defs>
    <linearGradient id="bg" x1="90" y1="48" x2="1110" y2="676" gradientUnits="userSpaceOnUse">
      <stop stop-color="#FFF8FA"/>
      <stop offset="1" stop-color="#F7DDC7"/>
    </linearGradient>
    <linearGradient id="arena" x1="0" y1="0" x2="356" y2="474" gradientUnits="userSpaceOnUse">
      <stop stop-color="#FFFDFD"/>
      <stop offset="1" stop-color="#F8E8EE"/>
    </linearGradient>
  </defs>
  <rect x="28" y="28" width="1144" height="664" rx="42" fill="url(#bg)"/>
  <rect x="28" y="28" width="1144" height="664" rx="42" stroke="#E5B9BE" stroke-width="3"/>
  <path d="M1000 86L1008 106L1028 114L1008 122L1000 142L992 122L972 114L992 106L1000 86Z" fill="#F4BE80"/>
  <path d="M944 132L949 145L962 150L949 155L944 168L939 155L926 150L939 145L944 132Z" fill="#EFC8D8"/>
  <circle cx="154" cy="586" r="88" fill="#FAEEE8"/>

  <rect x="88" y="116" width="356" height="474" rx="34" fill="url(#arena)" stroke="#E1BCCD" stroke-width="3"/>
  <circle cx="266" cy="316" r="116" fill="#FFF8FA" stroke="#E2B9C8" stroke-width="4"/>
  <circle cx="266" cy="316" r="82" fill="#F8E4D8"/>
  <circle cx="266" cy="316" r="54" fill="#F7C47E"/>
  <circle cx="266" cy="316" r="24" fill="#FFF9FB"/>
  <path d="M266 140V204" stroke="#D09A64" stroke-width="8" stroke-linecap="round"/>
  <path d="M266 428V492" stroke="#D09A64" stroke-width="8" stroke-linecap="round"/>
  <path d="M90 316H154" stroke="#D09A64" stroke-width="8" stroke-linecap="round"/>
  <path d="M378 316H442" stroke="#D09A64" stroke-width="8" stroke-linecap="round"/>
  <rect x="126" y="498" width="282" height="38" rx="19" fill="#F3D5E0"/>
  <rect x="150" y="510" width="142" height="14" rx="7" fill="#8A5D73"/>
  <rect x="306" y="510" width="74" height="14" rx="7" fill="#FFF9FB"/>

  <text x="500" y="220" fill="#4F2938" font-family="Georgia, 'Times New Roman', serif" font-size="66" font-weight="700">Normies</text>
  <text x="500" y="286" fill="#4F2938" font-family="Georgia, 'Times New Roman', serif" font-size="66" font-weight="700">Button</text>
  <text x="502" y="352" fill="#75485A" font-family="'Trebuchet MS', Arial, sans-serif" font-size="28">live multiplayer timing game</text>
  <text x="502" y="392" fill="#75485A" font-family="'Trebuchet MS', Arial, sans-serif" font-size="28">where Normies Types compete by round</text>

  <rect x="502" y="458" width="160" height="56" rx="28" fill="#FFF9FB" stroke="#E2B8C5" stroke-width="2"/>
  <rect x="686" y="458" width="178" height="56" rx="28" fill="#F7C47E"/>
  <rect x="888" y="458" width="170" height="56" rx="28" fill="#FFF9FB" stroke="#E2B8C5" stroke-width="2"/>
  <text x="582" y="493" text-anchor="middle" fill="#5C3140" font-family="'Trebuchet MS', Arial, sans-serif" font-size="22" font-weight="600">game UX</text>
  <text x="775" y="493" text-anchor="middle" fill="#5C3140" font-family="'Trebuchet MS', Arial, sans-serif" font-size="22" font-weight="600">shared state</text>
  <text x="973" y="493" text-anchor="middle" fill="#5C3140" font-family="'Trebuchet MS', Arial, sans-serif" font-size="22" font-weight="600">hackathon</text>
</svg>
