<svg width="1200" height="720" viewBox="0 0 1200 720" fill="none" xmlns="http://www.w3.org/2000/svg" role="img" aria-labelledby="title desc">
  <title id="title">Scribblies card</title>
  <desc id="desc">A soft rose project card for Scribblies, a Normies derivative with sketchbook drawing and Base minting.</desc>
  <defs>
    <linearGradient id="bg" x1="88" y1="50" x2="1112" y2="674" gradientUnits="userSpaceOnUse">
      <stop stop-color="#FFF9FB"/>
      <stop offset="1" stop-color="#F1D7E5"/>
    </linearGradient>
    <linearGradient id="pad" x1="0" y1="0" x2="352" y2="470" gradientUnits="userSpaceOnUse">
      <stop stop-color="#FFFDFD"/>
      <stop offset="1" stop-color="#F7E8EF"/>
    </linearGradient>
  </defs>
  <rect x="28" y="28" width="1144" height="664" rx="42" fill="url(#bg)"/>
  <rect x="28" y="28" width="1144" height="664" rx="42" stroke="#E2BACB" stroke-width="3"/>
  <path d="M998 90L1006 110L1026 118L1006 126L998 146L990 126L970 118L990 110L998 90Z" fill="#E9BFCF"/>
  <path d="M942 136L947 149L960 154L947 159L942 172L937 159L924 154L937 149L942 136Z" fill="#F3D6E0"/>
  <circle cx="156" cy="586" r="88" fill="#F9EEF4"/>

  <rect x="88" y="116" width="356" height="474" rx="34" fill="url(#pad)" stroke="#E1BCCD" stroke-width="3"/>
  <rect x="134" y="162" width="150" height="150" rx="18" fill="#FFF9FB" stroke="#DDB4C4" stroke-width="3"/>
  <rect x="164" y="192" width="28" height="28" rx="8" fill="#5C3140"/>
  <rect x="226" y="192" width="28" height="28" rx="8" fill="#5C3140"/>
  <path d="M174 258C196 282 226 282 248 258" stroke="#5C3140" stroke-width="8" stroke-linecap="round"/>
  <path d="M306 176C350 194 372 230 366 284C360 342 316 364 288 388" stroke="#D39AB2" stroke-width="14" stroke-linecap="round"/>
  <path d="M156 376C186 346 222 346 252 376C282 406 320 406 356 376" stroke="#8A5D73" stroke-width="8" stroke-linecap="round"/>
  <rect x="138" y="432" width="76" height="58" rx="16" fill="#F3D5E0"/>
  <rect x="238" y="432" width="76" height="58" rx="16" fill="#FFF8FB" stroke="#E2B9C8" stroke-width="2"/>
  <rect x="338" y="432" width="46" height="58" rx="16" fill="#F7C47E"/>
  <path d="M174 462H178" stroke="#5C3140" stroke-width="8" stroke-linecap="round"/>
  <path d="M272 462H280" stroke="#5C3140" stroke-width="8" stroke-linecap="round"/>

  <text x="500" y="220" fill="#4F2938" font-family="Georgia, 'Times New Roman', serif" font-size="66" font-weight="700">Scribblies</text>
  <text x="502" y="306" fill="#754A5B" font-family="'Trebuchet MS', Arial, sans-serif" font-size="28">a Normies derivative with generated profiles</text>
  <text x="502" y="346" fill="#754A5B" font-family="'Trebuchet MS', Arial, sans-serif" font-size="28">and holder-made sketchbook chaos</text>

  <rect x="502" y="430" width="150" height="56" rx="28" fill="#FFF9FB" stroke="#E2B9C8" stroke-width="2"/>
  <rect x="676" y="430" width="192" height="56" rx="28" fill="#F0D4E0"/>
  <rect x="892" y="430" width="156" height="56" rx="28" fill="#FFF9FB" stroke="#E2B9C8" stroke-width="2"/>
  <text x="577" y="465" text-anchor="middle" fill="#5C3140" font-family="'Trebuchet MS', Arial, sans-serif" font-size="22" font-weight="600">Normies</text>
  <text x="772" y="465" text-anchor="middle" fill="#5C3140" font-family="'Trebuchet MS', Arial, sans-serif" font-size="22" font-weight="600">drawing tools</text>
  <text x="970" y="465" text-anchor="middle" fill="#5C3140" font-family="'Trebuchet MS', Arial, sans-serif" font-size="22" font-weight="600">Base NFTs</text>

  <path d="M854 610L862 630L882 638L862 646L854 666L846 646L826 638L846 630L854 610Z" fill="#F7C47E"/>
</svg>
